<?xml version="1.0" encoding="UTF-8" standalone="no"?>
<!-- Uploaded to: SVG Repo, www.svgrepo.com, Generator: SVG Repo Mixer Tools -->
<svg xmlns="http://www.w3.org/2000/svg" version="1.1" width="20" height="20">
    <path d="M 16.929688 0.69726562 C 16.757944 0.69726563 16.586556 0.79386857 16.511719 0.984375 L 16.111328 2.0019531 C 16.065658 2.1182778 15.975282 2.2099804 15.859375 2.2558594 L 14.84375 2.6582031 C 14.464122 2.8084718 14.464122 3.3477772 14.84375 3.4980469 L 15.859375 3.9003906 C 15.975282 3.9462706 16.065654 4.0379712 16.111328 4.1542969 L 16.511719 5.1738281 C 16.661394 5.5548409 17.199938 5.5548319 17.349609 5.1738281 L 17.75 4.1542969 C 17.79567 4.0379712 17.886046 3.9462696 18.001953 3.9003906 L 19.017578 3.4980469 C 19.397205 3.3477772 19.397205 2.8084718 19.017578 2.6582031 L 18.001953 2.2558594 C 17.886046 2.2099794 17.795675 2.1182778 17.75 2.0019531 L 17.349609 0.984375 C 17.274772 0.79386857 17.101429 0.69726563 16.929688 0.69726562 z" />
    <path d="M 13.333984 6.1132812 C 13.162243 6.1132812 12.988946 6.2098889 12.914062 6.4003906 L 12.769531 6.7714844 C 12.723861 6.88781 12.631532 6.979512 12.515625 7.0253906 L 12.144531 7.171875 C 11.764907 7.3221442 11.764907 7.8614492 12.144531 8.0117188 L 12.515625 8.1582031 C 12.631532 8.2040631 12.723857 8.2957378 12.769531 8.4121094 L 12.914062 8.7832031 C 13.063829 9.1642245 13.602185 9.1642245 13.751953 8.7832031 L 13.896484 8.4121094 C 13.942154 8.2957378 14.034484 8.2040631 14.150391 8.1582031 L 14.521484 8.0117188 C 14.901112 7.8614492 14.901112 7.3221442 14.521484 7.171875 L 14.150391 7.0253906 C 14.034484 6.979511 13.942159 6.88781 13.896484 6.7714844 L 13.751953 6.4003906 C 13.677069 6.2098889 13.505728 6.1132812 13.333984 6.1132812 z" />
    <path d="M 10 0 C 4.4771595 0 0 4.4771595 0 10 C 0 15.522878 4.4771595 20 10 20 C 15.522878 20 20 15.522878 20 10 C 20 9.3333957 19.468177 9.0004753 19.044922 8.9433594 C 18.63776 8.8882894 18.120681 9.0377648 17.837891 9.5058594 C 16.900125 11.057765 15.198369 12.09375 13.255859 12.09375 C 10.301815 12.09375 7.90625 9.6981847 7.90625 6.7441406 C 7.90625 4.8016496 8.9422352 3.0999034 10.494141 2.1621094 C 10.962233 1.8792997 11.111711 1.3622497 11.056641 0.95507812 C 10.999521 0.53181355 10.666604 -7.4014794e-17 10 0 z M 9.0878906 1.4433594 C 7.5205781 2.6774941 6.5117188 4.5924216 6.5117188 6.7441406 C 6.5117188 10.468881 9.5311191 13.488281 13.255859 13.488281 C 15.40757 13.488281 17.322473 12.479418 18.556641 10.912109 C 18.100667 15.235032 14.443759 18.605469 10 18.605469 C 5.2477908 18.605469 1.3945312 14.752181 1.3945312 10 C 1.3945312 5.5562145 4.764948 1.8993299 9.0878906 1.4433594 z" />
</svg>
