<?xml version="1.0" encoding="UTF-8" standalone="no"?>
<!-- Uploaded to: SVG Repo, www.svgrepo.com, Generator: SVG Repo Mixer Tools -->
<svg xmlns="http://www.w3.org/2000/svg" version="1.1" width="20" height="20">
    <path style="fill: #1c274c" d="m 10,0 c 0.385302,0 0.697674,0.31236279 0.697674,0.69767442 V 2.5581395 c 0,0.3853117 -0.312372,0.6976745 -0.697674,0.6976745 -0.3853023,0 -0.6976744,-0.3123628 -0.6976744,-0.6976745 V 0.69767442 C 9.3023256,0.31236279 9.6146977,0 10,0 Z M 2.249907,2.2940372 c 0.26,-0.2843721 0.7013023,-0.3041302 0.9856744,-0.04413 l 2.0669861,1.8898511 c 0.284372,0.26 0.3041302,0.7012931 0.04413,0.9856652 -0.26,0.2843721 -0.7013023,0.3041302 -0.9856744,0.04413 L 2.2940372,3.2797116 C 2.0096651,3.0197116 1.989907,2.5784093 2.249907,2.2940372 Z m 15.500233,0 c 0.26,0.2843721 0.240186,0.7256744 -0.04419,0.9856744 l -2.066977,1.8898419 c -0.284372,0.26 -0.725675,0.2402419 -0.985675,-0.04413 -0.26,-0.2843721 -0.240279,-0.7256652 0.04409,-0.9856652 l 2.06707,-1.8898511 c 0.284372,-0.26 0.725582,-0.2402419 0.985675,0.04413 z M 10,6.0465116 c -2.1834511,0 -3.9534884,1.7700373 -3.9534884,3.9534884 0,2.183442 1.7700373,3.953488 3.9534884,3.953488 2.183442,0 3.953488,-1.770046 3.953488,-3.953488 C 13.953488,7.8165489 12.183442,6.0465116 10,6.0465116 Z M 4.6511628,10 c 0,-2.9540837 2.3947535,-5.3488372 5.3488372,-5.3488372 2.954047,0 5.348837,2.3947535 5.348837,5.3488372 0,2.954047 -2.39479,5.348837 -5.348837,5.348837 -2.9540837,0 -5.3488372,-2.39479 -5.3488372,-5.348837 z M 0,10 C 0,9.6146977 0.31236279,9.3023256 0.69767442,9.3023256 H 2.5581395 c 0.3853117,0 0.6976745,0.3123721 0.6976745,0.6976744 0,0.385302 -0.3123628,0.697674 -0.6976745,0.697674 H 0.69767442 C 0.31236279,10.697674 0,10.385302 0,10 Z m 16.744186,0 c 0,-0.3853023 0.312372,-0.6976744 0.697674,-0.6976744 h 1.860466 C 19.687628,9.3023256 20,9.6146977 20,10 c 0,0.385302 -0.312372,0.697674 -0.697674,0.697674 H 17.44186 c -0.385302,0 -0.697674,-0.312372 -0.697674,-0.697674 z m -2.069302,4.674605 c 0.272465,-0.272465 0.714232,-0.272465 0.986697,0 l 2.066977,2.067255 c 0.272465,0.272466 0.272372,0.714233 -9.3e-5,0.986698 -0.272465,0.272465 -0.714232,0.272372 -0.986605,-9.3e-5 l -2.066976,-2.067256 c -0.272465,-0.272465 -0.272465,-0.714139 0,-0.986604 z m -9.3496096,9.3e-5 c 0.2724558,0.272465 0.2724558,0.714232 0,0.986697 l -2.0671907,2.067163 c -0.2724558,0.272465 -0.7141953,0.272465 -0.9866604,0 -0.2724559,-0.272465 -0.2724559,-0.714232 0,-0.986604 L 4.338614,14.674698 c 0.2724558,-0.272465 0.7141953,-0.272465 0.9866604,0 z M 10,16.744186 c 0.385302,0 0.697674,0.312372 0.697674,0.697674 v 1.860466 C 10.697674,19.687628 10.385302,20 10,20 9.6146977,20 9.3023256,19.687628 9.3023256,19.302326 V 17.44186 c 0,-0.385302 0.3123721,-0.697674 0.6976744,-0.697674 z" />
</svg>
